<mxfile host="app.diagrams.net" modified="2021-04-11T17:44:13.659Z" agent="5.0 (Windows NT 10.0; Win64; x64) AppleWebKit/537.36 (KHTML, like Gecko) Chrome/89.0.4389.114 Safari/537.36" etag="6OhUhvOZbnvaVyShOZUS" version="14.5.10" type="github">
  <diagram name="Page-1" id="58cdce13-f638-feb5-8d6f-7d28b1aa9fa0">
    <mxGraphModel dx="1038" dy="548" grid="1" gridSize="10" guides="1" tooltips="1" connect="1" arrows="1" fold="1" page="1" pageScale="1" pageWidth="1100" pageHeight="850" background="#ffffff" math="0" shadow="0">
      <root>
        <mxCell id="0" />
        <mxCell id="1" parent="0" />
        <mxCell id="3qUmnugAzTzsJO7S0ycU-1" value="Kapu állapot" style="shape=umlFrame;whiteSpace=wrap;html=1;rounded=1;shadow=0;comic=0;labelBackgroundColor=none;strokeWidth=1;fontFamily=Verdana;fontSize=12;align=center;" vertex="1" parent="1">
          <mxGeometry x="30" y="35" width="1050" height="675" as="geometry" />
        </mxCell>
        <mxCell id="3qUmnugAzTzsJO7S0ycU-2" value="" style="ellipse;html=1;shape=startState;fillColor=#000000;strokeColor=#ff0000;rounded=1;shadow=0;comic=0;labelBackgroundColor=none;fontFamily=Verdana;fontSize=12;fontColor=#000000;align=center;direction=south;" vertex="1" parent="1">
          <mxGeometry x="130" y="135" width="30" height="30" as="geometry" />
        </mxCell>
        <mxCell id="3qUmnugAzTzsJO7S0ycU-3" value="Kapu-pár telepesnél" style="rounded=1;whiteSpace=wrap;html=1;arcSize=24;fillColor=#ffffc0;strokeColor=#ff0000;shadow=0;comic=0;labelBackgroundColor=none;fontFamily=Verdana;fontSize=12;fontColor=#000000;align=center;" vertex="1" parent="1">
          <mxGeometry x="480" y="105" width="120" height="60" as="geometry" />
        </mxCell>
        <mxCell id="3qUmnugAzTzsJO7S0ycU-4" value="Lerakva" style="swimlane;whiteSpace=wrap;html=1;rounded=1;shadow=0;comic=0;labelBackgroundColor=none;strokeWidth=1;fontFamily=Verdana;fontSize=12;align=center;" vertex="1" parent="1">
          <mxGeometry x="90" y="230" width="930" height="350" as="geometry" />
        </mxCell>
        <mxCell id="3qUmnugAzTzsJO7S0ycU-5" value="Egyik lerakva" style="rounded=1;whiteSpace=wrap;html=1;arcSize=24;fillColor=#ffffc0;strokeColor=#ff0000;shadow=0;comic=0;labelBackgroundColor=none;fontFamily=Verdana;fontSize=12;fontColor=#000000;align=center;" vertex="1" parent="3qUmnugAzTzsJO7S0ycU-4">
          <mxGeometry x="215" y="65" width="120" height="60" as="geometry" />
        </mxCell>
        <mxCell id="3qUmnugAzTzsJO7S0ycU-6" style="edgeStyle=elbowEdgeStyle;html=1;labelBackgroundColor=none;endArrow=open;endSize=8;strokeColor=#ff0000;fontFamily=Verdana;fontSize=12;align=left;" edge="1" parent="3qUmnugAzTzsJO7S0ycU-4" source="3qUmnugAzTzsJO7S0ycU-7" target="3qUmnugAzTzsJO7S0ycU-5">
          <mxGeometry relative="1" as="geometry" />
        </mxCell>
        <mxCell id="3qUmnugAzTzsJO7S0ycU-7" value="" style="ellipse;html=1;shape=startState;fillColor=#000000;strokeColor=#ff0000;rounded=1;shadow=0;comic=0;labelBackgroundColor=none;fontFamily=Verdana;fontSize=12;fontColor=#000000;align=center;direction=south;" vertex="1" parent="3qUmnugAzTzsJO7S0ycU-4">
          <mxGeometry x="75" y="80" width="30" height="30" as="geometry" />
        </mxCell>
        <mxCell id="3qUmnugAzTzsJO7S0ycU-8" value="Kapupárt létrehoz" style="edgeStyle=orthogonalEdgeStyle;html=1;labelBackgroundColor=none;endArrow=open;endSize=8;strokeColor=#ff0000;fontFamily=Verdana;fontSize=12;align=left;entryX=0;entryY=0.75;entryDx=0;entryDy=0;" edge="1" parent="1" source="3qUmnugAzTzsJO7S0ycU-2" target="3qUmnugAzTzsJO7S0ycU-3">
          <mxGeometry x="-0.3939" y="20" relative="1" as="geometry">
            <Array as="points">
              <mxPoint x="450" y="150" />
            </Array>
            <mxPoint as="offset" />
          </mxGeometry>
        </mxCell>
        <mxCell id="3qUmnugAzTzsJO7S0ycU-9" value="KapuLerak(t: Teleportkapu)" style="edgeStyle=orthogonalEdgeStyle;html=1;labelBackgroundColor=none;endArrow=open;endSize=8;strokeColor=#ff0000;fontFamily=Verdana;fontSize=12;align=left;exitX=0.75;exitY=1;exitDx=0;exitDy=0;entryX=0.25;entryY=0;entryDx=0;entryDy=0;" edge="1" parent="1" source="3qUmnugAzTzsJO7S0ycU-3" target="3qUmnugAzTzsJO7S0ycU-4">
          <mxGeometry x="0.36" y="-17" relative="1" as="geometry">
            <mxPoint x="540" y="160" as="sourcePoint" />
            <mxPoint x="570" y="260" as="targetPoint" />
            <mxPoint x="-1" as="offset" />
          </mxGeometry>
        </mxCell>
        <mxCell id="3qUmnugAzTzsJO7S0ycU-10" value="RemoveSzomszed(m:Mező)" style="edgeStyle=elbowEdgeStyle;html=1;labelBackgroundColor=none;endArrow=open;endSize=8;strokeColor=#ff0000;fontFamily=Verdana;fontSize=12;align=left;exitX=0.25;exitY=1;exitDx=0;exitDy=0;entryX=0;entryY=0.5;entryDx=0;entryDy=0;" edge="1" parent="1" source="3qUmnugAzTzsJO7S0ycU-4" target="3qUmnugAzTzsJO7S0ycU-11">
          <mxGeometry x="-0.1707" y="15" relative="1" as="geometry">
            <mxPoint x="220" y="560" as="sourcePoint" />
            <mxPoint x="350" y="640" as="targetPoint" />
            <Array as="points">
              <mxPoint x="310" y="480" />
            </Array>
            <mxPoint x="-1" as="offset" />
          </mxGeometry>
        </mxCell>
        <mxCell id="3qUmnugAzTzsJO7S0ycU-11" value="" style="ellipse;html=1;shape=endState;fillColor=#000000;strokeColor=#ff0000;rounded=1;shadow=0;comic=0;labelBackgroundColor=none;fontFamily=Verdana;fontSize=12;fontColor=#000000;align=center;" vertex="1" parent="1">
          <mxGeometry x="540" y="660" width="30" height="30" as="geometry" />
        </mxCell>
        <mxCell id="3qUmnugAzTzsJO7S0ycU-12" value="&lt;br&gt;&lt;br&gt;&lt;span style=&quot;color: rgb(0 , 0 , 0) ; font-family: &amp;#34;verdana&amp;#34; ; font-size: 12px ; font-style: normal ; font-weight: 400 ; letter-spacing: normal ; text-align: left ; text-indent: 0px ; text-transform: none ; word-spacing: 0px ; background-color: rgb(248 , 249 , 250) ; display: inline ; float: none&quot;&gt;KapuLerak(par&lt;span style=&quot;font-family: &amp;#34;verdana&amp;#34;&quot;&gt;: Teleportkapu&lt;/span&gt;)&lt;/span&gt;" style="edgeStyle=elbowEdgeStyle;html=1;labelBackgroundColor=none;endArrow=open;endSize=8;strokeColor=#ff0000;fontFamily=Verdana;fontSize=12;align=left;exitX=1;exitY=0.5;exitDx=0;exitDy=0;" edge="1" parent="1" source="3qUmnugAzTzsJO7S0ycU-5" target="3qUmnugAzTzsJO7S0ycU-13">
          <mxGeometry x="-0.5714" y="-5" relative="1" as="geometry">
            <mxPoint x="490" y="325" as="targetPoint" />
            <Array as="points" />
            <mxPoint as="offset" />
          </mxGeometry>
        </mxCell>
        <mxCell id="3qUmnugAzTzsJO7S0ycU-13" value="Aktív kapu pár" style="rounded=1;whiteSpace=wrap;html=1;arcSize=24;fillColor=#ffffc0;strokeColor=#ff0000;shadow=0;comic=0;labelBackgroundColor=none;fontFamily=Verdana;fontSize=12;fontColor=#000000;align=center;" vertex="1" parent="1">
          <mxGeometry x="690" y="300" width="120" height="60" as="geometry" />
        </mxCell>
        <mxCell id="3qUmnugAzTzsJO7S0ycU-14" value="megsemmisul()" style="edgeStyle=elbowEdgeStyle;html=1;labelBackgroundColor=none;endArrow=open;endSize=8;strokeColor=#ff0000;fontFamily=Verdana;fontSize=12;align=left;exitX=0.75;exitY=1;exitDx=0;exitDy=0;" edge="1" parent="1" source="3qUmnugAzTzsJO7S0ycU-4" target="3qUmnugAzTzsJO7S0ycU-11">
          <mxGeometry x="-0.1707" y="15" relative="1" as="geometry">
            <mxPoint x="332.5" y="440" as="sourcePoint" />
            <mxPoint x="570" y="485" as="targetPoint" />
            <Array as="points">
              <mxPoint x="788" y="460" />
            </Array>
            <mxPoint x="-1" as="offset" />
          </mxGeometry>
        </mxCell>
        <mxCell id="3qUmnugAzTzsJO7S0ycU-15" value="Egyik megkergült" style="rounded=1;whiteSpace=wrap;html=1;arcSize=24;fillColor=#ffffc0;strokeColor=#ff0000;shadow=0;comic=0;labelBackgroundColor=none;fontFamily=Verdana;fontSize=12;fontColor=#000000;align=center;" vertex="1" parent="1">
          <mxGeometry x="300" y="450" width="120" height="60" as="geometry" />
        </mxCell>
        <mxCell id="3qUmnugAzTzsJO7S0ycU-16" value="Kapu pár megkergült" style="rounded=1;whiteSpace=wrap;html=1;arcSize=24;fillColor=#ffffc0;strokeColor=#ff0000;shadow=0;comic=0;labelBackgroundColor=none;fontFamily=Verdana;fontSize=12;fontColor=#000000;align=center;" vertex="1" parent="1">
          <mxGeometry x="690" y="450" width="120" height="60" as="geometry" />
        </mxCell>
        <mxCell id="3qUmnugAzTzsJO7S0ycU-17" value="Napvihar()" style="edgeStyle=elbowEdgeStyle;html=1;labelBackgroundColor=none;endArrow=open;endSize=8;strokeColor=#ff0000;fontFamily=Verdana;fontSize=12;align=left;" edge="1" parent="1" source="3qUmnugAzTzsJO7S0ycU-5" target="3qUmnugAzTzsJO7S0ycU-15">
          <mxGeometry x="-0.0526" y="17" relative="1" as="geometry">
            <mxPoint x="700" y="340" as="targetPoint" />
            <Array as="points" />
            <mxPoint as="offset" />
            <mxPoint x="435" y="335" as="sourcePoint" />
          </mxGeometry>
        </mxCell>
        <mxCell id="3qUmnugAzTzsJO7S0ycU-18" value="Napvihar()" style="edgeStyle=elbowEdgeStyle;html=1;labelBackgroundColor=none;endArrow=open;endSize=8;strokeColor=#ff0000;fontFamily=Verdana;fontSize=12;align=left;" edge="1" parent="1" source="3qUmnugAzTzsJO7S0ycU-13" target="3qUmnugAzTzsJO7S0ycU-16">
          <mxGeometry x="-0.0526" y="17" relative="1" as="geometry">
            <mxPoint x="373" y="460" as="targetPoint" />
            <Array as="points" />
            <mxPoint as="offset" />
            <mxPoint x="373" y="365" as="sourcePoint" />
          </mxGeometry>
        </mxCell>
        <mxCell id="3qUmnugAzTzsJO7S0ycU-19" value="&lt;br&gt;&lt;br&gt;&lt;span style=&quot;color: rgb(0 , 0 , 0) ; font-family: &amp;#34;verdana&amp;#34; ; font-size: 12px ; font-style: normal ; font-weight: 400 ; letter-spacing: normal ; text-align: left ; text-indent: 0px ; text-transform: none ; word-spacing: 0px ; background-color: rgb(248 , 249 , 250) ; display: inline ; float: none&quot;&gt;KapuLerak(par&lt;span style=&quot;font-family: &amp;#34;verdana&amp;#34;&quot;&gt;: Teleportkapu&lt;/span&gt;)&lt;/span&gt;" style="edgeStyle=elbowEdgeStyle;html=1;labelBackgroundColor=none;endArrow=open;endSize=8;strokeColor=#ff0000;fontFamily=Verdana;fontSize=12;align=left;" edge="1" parent="1" source="3qUmnugAzTzsJO7S0ycU-15" target="3qUmnugAzTzsJO7S0ycU-16">
          <mxGeometry x="-0.5714" y="-5" relative="1" as="geometry">
            <mxPoint x="700" y="340" as="targetPoint" />
            <Array as="points" />
            <mxPoint as="offset" />
            <mxPoint x="435" y="335" as="sourcePoint" />
          </mxGeometry>
        </mxCell>
      </root>
    </mxGraphModel>
  </diagram>
</mxfile>
